<svg width="24" height="24" viewBox="0 0 24 24" fill="none" xmlns="http://www.w3.org/2000/svg">
<g clip-path="url(#clip0_3173_3795)">
<g clip-path="url(#clip1_3173_3795)">
<rect width="27.7333" height="27.7333" transform="translate(-2.5332 -0.799805)" fill="#DC4518"/>
<path d="M25.0944 3.90306V22.2045C25.0944 23.4303 24.6081 24.6058 23.7424 25.4726C22.8768 26.3393 21.7027 26.8263 20.4785 26.8263H2.20675C1.01286 26.827 -0.134866 26.3645 -0.995415 25.5358C-1.44443 25.1046 -1.8016 24.5868 -2.04541 24.0136C-2.28922 23.4404 -2.41462 22.8238 -2.41406 22.2008V3.90306C-2.41439 3.2956 -2.29506 2.69405 -2.06289 2.13284C-1.83073 1.57163 -1.4903 1.06177 -1.06108 0.63247C-0.631872 0.203166 -0.122307 -0.137158 0.438434 -0.369018C0.999175 -0.600878 1.60008 -0.719721 2.20675 -0.718744H20.4847C21.7079 -0.717431 22.8806 -0.229874 23.745 0.636774C24.6094 1.50342 25.0947 2.67825 25.0944 3.90306Z" fill="#DC4518"/>
<path d="M16.4254 2.91455L27.5408 13.8548L27.8191 28.0285H-2.41406V24.9251L-1.0152 24.7504L4.27722 17.9168L4.34772 12.0343L4.95624 4.94433L9.88873 9.51163L16.4254 2.91455Z" fill="#BD2C00"/>
<path d="M5.44579 15.6467C5.19759 18.1287 4.0984 20.4481 2.33515 22.2103L-2.78983 27.5017C-3.16154 27.1427 -3.47086 26.7242 -3.70508 26.2633L1.26158 21.1217C2.44514 19.9362 3.28796 18.4533 3.70147 16.829C4.11498 15.2046 4.08392 13.4987 3.61156 11.8905H3.63011C3.05404 9.73748 3.15905 7.45853 3.93066 5.36775C3.96882 5.2652 4.02825 5.17191 4.10505 5.09405C4.21494 4.98477 4.35543 4.91155 4.50786 4.88412C4.6603 4.85669 4.81746 4.87635 4.95847 4.94049C5.13199 5.01895 5.26947 5.1602 5.34334 5.33591C5.4172 5.51162 5.42198 5.70879 5.35673 5.88788C4.69495 7.68021 4.60208 9.63344 5.09081 11.4806C5.11308 11.5661 5.13534 11.6503 5.16132 11.7283H5.14276C5.48008 13.0052 5.58276 14.3329 5.44579 15.6467Z" fill="white"/>
<path d="M22.0255 11.7412L13.6324 20.1451C12.6577 21.1307 11.3916 21.7752 10.0221 21.9829C8.02327 22.2618 6.17081 23.1888 4.74819 24.622L0.834545 28.4566V28.1928C0.310802 28.1934 -0.549303 28.368 -1.04297 28.1928L3.68081 23.5471C5.33585 21.8802 7.49057 20.8019 9.81551 20.477C10.8594 20.3168 11.8237 19.8234 12.565 19.0702L20.9581 10.6662C21.1005 10.5241 21.2933 10.4443 21.4943 10.4443C21.6953 10.4443 21.8881 10.5241 22.0305 10.6662C22.1718 10.8096 22.2507 11.0033 22.2497 11.2047C22.2488 11.4062 22.1682 11.5991 22.0255 11.7412Z" fill="white"/>
<path d="M12.4512 16.908L11.3789 15.8331L19.8166 7.38454C19.8869 7.31388 19.9705 7.25782 20.0625 7.21957C20.1545 7.18131 20.2531 7.16162 20.3528 7.16162C20.4524 7.16162 20.551 7.18131 20.643 7.21957C20.735 7.25782 20.8186 7.31388 20.8889 7.38454C21.0309 7.52728 21.1107 7.72055 21.1107 7.92202C21.1107 8.12348 21.0309 8.31675 20.8889 8.45949L12.4512 16.908Z" fill="white"/>
<path d="M10.2002 14.6537L9.13281 13.5787L17.5705 5.1302C17.7131 4.98803 17.9061 4.9082 18.1073 4.9082C18.3085 4.9082 18.5015 4.98803 18.6441 5.1302C18.7861 5.27295 18.8658 5.46621 18.8658 5.66768C18.8658 5.86915 18.7861 6.06241 18.6441 6.20515L10.2002 14.6537Z" fill="white"/>
<path d="M7.98763 12.4383L6.91406 11.3633L15.353 2.91481C15.4233 2.84416 15.5069 2.78809 15.5989 2.74984C15.6909 2.71159 15.7895 2.69189 15.8892 2.69189C15.9888 2.69189 16.0874 2.71159 16.1794 2.74984C16.2714 2.78809 16.355 2.84416 16.4253 2.91481C16.5673 3.05756 16.647 3.25082 16.647 3.45229C16.647 3.65376 16.5673 3.84702 16.4253 3.98977L7.98763 12.4383Z" fill="white"/>
</g>
</g>
<defs>
<clipPath id="clip0_3173_3795">
<rect width="24" height="24" rx="12" fill="white"/>
</clipPath>
<clipPath id="clip1_3173_3795">
<rect width="27.7333" height="27.7333" fill="white" transform="translate(-2.5332 -0.799805)"/>
</clipPath>
</defs>
</svg>
